<?xml version="1.0" encoding="UTF-8" standalone="no"?>
<!DOCTYPE svg PUBLIC "-//W3C//DTD SVG 1.1//EN" "http://www.w3.org/Graphics/SVG/1.1/DTD/svg11.dtd">
<svg width="100%" height="100%" viewBox="0 0 119 22" version="1.1" xmlns="http://www.w3.org/2000/svg" xmlns:xlink="http://www.w3.org/1999/xlink" xml:space="preserve" xmlns:serif="http://www.serif.com/" style="fill-rule:evenodd;clip-rule:evenodd;stroke-linejoin:round;stroke-miterlimit:2;">
    <g transform="matrix(0.0244106,0,0,0.0244106,0,0)">
        <g transform="matrix(4.16667,0,0,4.16667,0,0)">
            <path d="M160.14,0L166.503,0C166.6,0.045 166.694,0.122 166.794,0.131C168.785,0.297 170.786,0.375 172.764,0.636C175.176,0.955 177.593,1.318 179.965,1.855C184.2,2.814 188.323,4.161 192.254,6.022C194.923,7.286 197.58,8.59 200.159,10.025C202.922,11.562 205.628,13.21 208.284,14.925C211.113,16.752 213.62,19.002 216.055,21.321C217.065,22.282 218.005,23.317 218.958,24.336C219.607,25.031 220.25,25.734 220.85,26.472C222.466,28.46 224.079,30.452 225.654,32.472C227.91,35.364 229.868,38.453 231.55,41.708C233.683,45.835 235.405,50.137 236.704,54.598C237.29,56.61 237.809,58.645 238.26,60.69C238.658,62.491 238.945,64.317 239.234,66.14C239.47,67.636 239.821,69.147 239.8,70.646C239.722,76.366 240.206,82.1 239.469,87.805C239.253,89.482 239.08,91.175 238.711,92.82C238.086,95.61 237.357,98.378 236.606,101.137C235.609,104.803 234.165,108.307 232.567,111.744C230.788,115.574 228.699,119.237 226.118,122.578C224.09,125.203 221.918,127.72 219.723,130.209C218.579,131.507 217.27,132.664 215.994,133.84C214.757,134.98 213.482,136.08 212.197,137.165C209.546,139.402 206.731,141.413 203.814,143.29C200.447,145.456 196.956,147.383 193.324,149.063C189.846,150.672 186.27,152.013 182.592,153.103C178.006,154.461 173.327,155.337 168.561,155.52C165.162,155.65 161.747,155.441 158.343,155.308C156.349,155.23 154.356,155.042 152.371,154.83C150.533,154.632 148.69,154.415 146.877,154.064C144.705,153.643 142.553,153.103 140.407,152.556C137.148,151.725 134.012,150.531 130.965,149.119C127.836,147.669 124.824,145.999 121.952,144.082C121.807,143.985 121.571,143.912 121.416,143.958C120.459,144.247 119.476,144.489 118.571,144.899C115.435,146.323 112.346,147.849 109.205,149.259C106.915,150.286 104.603,151.284 102.243,152.13C97.722,153.752 93.034,154.743 88.289,155.412C85.904,155.748 83.485,155.837 81.082,156.045C80.903,156.061 80.727,156.133 80.55,156.178L74.308,156.178C74.11,156.133 73.915,156.059 73.716,156.045C72.351,155.956 70.977,155.948 69.622,155.783C67.497,155.524 65.364,155.257 63.27,154.819C60.434,154.225 57.604,153.565 54.826,152.747C52.536,152.072 50.319,151.146 48.082,150.298C44.631,148.991 41.347,147.316 38.211,145.394C35.552,143.763 32.973,141.979 30.49,140.089C28.213,138.357 26.023,136.486 23.959,134.504C21.943,132.568 20.073,130.468 18.257,128.339C16.753,126.574 15.354,124.71 14.032,122.804C12.747,120.95 11.537,119.031 10.442,117.059C9.098,114.637 7.809,112.173 6.674,109.647C5.284,106.554 4.115,103.363 3.255,100.074C2.655,97.782 2.074,95.481 1.595,93.161C1.218,91.336 0.986,89.478 0.735,87.629C0.539,86.184 0.377,84.732 0.268,83.278C0.174,82.029 0.179,80.773 0.131,79.521C0.127,79.422 0.045,79.327 0,79.229L0,75.388C0.045,75.31 0.125,75.235 0.129,75.156C0.217,73.571 0.274,71.984 0.384,70.401C0.47,69.161 0.545,67.912 0.758,66.69C1.183,64.257 1.629,61.823 2.193,59.419C3.389,54.32 5.172,49.423 7.448,44.704C9.462,40.529 11.845,36.575 14.578,32.837C16.622,30.04 18.81,27.351 21.283,24.923C23.366,22.877 25.51,20.887 27.717,18.976C29.352,17.562 31.073,16.229 32.863,15.018C35.237,13.413 37.698,11.933 40.155,10.455C42.925,8.788 45.851,7.418 48.867,6.269C51.668,5.201 54.494,4.186 57.357,3.3C59.486,2.64 61.677,2.155 63.866,1.715C65.925,1.302 68.012,1.01 70.096,0.741C71.799,0.521 73.515,0.295 75.227,0.283C78.072,0.265 80.921,0.362 83.763,0.516C85.491,0.61 87.237,0.767 88.924,1.135C92.041,1.815 95.143,2.592 98.207,3.482C100.178,4.055 102.09,4.853 103.992,5.637C106.733,6.767 109.429,8.005 112.166,9.143C113.974,9.894 115.799,10.622 117.657,11.233C119.864,11.958 122.024,11.853 124.091,10.612C125.339,9.864 126.674,9.26 127.976,8.603C130.072,7.547 132.118,6.365 134.286,5.48C137.625,4.117 141.065,3.003 144.608,2.276C147.49,1.684 150.373,1.079 153.281,0.649C155.41,0.335 157.578,0.299 159.728,0.132C159.868,0.121 160.003,0.045 160.14,0ZM105.334,24.803C105.098,24.603 105.032,24.521 104.948,24.48C103.851,23.951 102.757,23.417 101.653,22.905C99.029,21.687 96.293,20.782 93.505,20.033C90.999,19.359 88.464,18.825 85.876,18.584C84.086,18.417 82.298,18.201 80.503,18.13C78.994,18.07 77.476,18.158 75.965,18.238C74.485,18.317 72.999,18.399 71.533,18.604C69.356,18.907 67.17,19.217 65.031,19.707C60.622,20.716 56.356,22.193 52.278,24.152C50.346,25.08 48.484,26.159 46.621,27.222C42.979,29.303 39.653,31.834 36.582,34.673C33.97,37.087 31.54,39.684 29.389,42.537C26.869,45.879 24.69,49.418 22.933,53.219C21.356,56.631 20.145,60.163 19.254,63.817C18.463,67.06 18.026,70.351 17.771,73.665C17.651,75.222 17.718,76.796 17.757,78.361C17.8,80.028 17.873,81.695 18,83.358C18.112,84.831 18.237,86.312 18.499,87.764C18.857,89.748 19.324,91.715 19.79,93.678C20.709,97.55 22.128,101.249 23.839,104.833C25.299,107.892 26.977,110.839 29.042,113.53C30.759,115.768 32.536,117.969 34.424,120.061C36.392,122.242 38.649,124.128 40.967,125.943C43.782,128.145 46.786,130.043 49.944,131.696C51.441,132.479 52.971,133.224 54.55,133.82C57.023,134.753 59.527,135.617 62.058,136.378C64.958,137.249 67.931,137.821 70.956,138.068C73.066,138.241 75.175,138.466 77.289,138.524C78.911,138.568 80.544,138.442 82.164,138.297C84.244,138.11 86.338,137.951 88.383,137.559C91.073,137.044 93.748,136.406 96.383,135.657C100.769,134.41 104.882,132.506 108.787,130.147C111.967,128.226 114.935,126.023 117.696,123.542C117.957,123.307 118.143,123.3 118.421,123.443C120.473,124.498 122.524,125.554 124.583,126.592C127.967,128.297 131.355,129.99 134.747,131.679C134.883,131.747 135.068,131.721 135.23,131.733C135.541,131.756 135.883,131.695 136.157,131.806C138.923,132.921 141.654,134.127 144.442,135.183C147.834,136.468 151.371,137.2 154.975,137.585C156.782,137.778 158.593,137.988 160.407,138.051C163.426,138.156 166.446,138.052 169.438,137.582C171.453,137.266 173.469,136.935 175.465,136.515C179.14,135.74 182.721,134.63 186.128,133.041C188.78,131.804 191.436,130.548 193.976,129.099C196.829,127.472 199.491,125.537 202.014,123.414C204.385,121.417 206.625,119.299 208.684,116.978C210.493,114.938 212.219,112.83 213.582,110.471C214.939,108.122 216.263,105.738 217.371,103.267C218.606,100.514 219.504,97.617 220.141,94.659C220.609,92.492 221.03,90.312 221.36,88.121C221.647,86.211 221.818,84.281 221.967,82.354C222.102,80.613 222.167,78.864 222.212,77.117C222.252,75.618 222.282,74.113 222.205,72.617C222.106,70.704 222.066,68.763 221.692,66.895C221.177,64.328 220.502,61.775 219.656,59.298C218.769,56.703 217.679,54.169 216.529,51.677C215.622,49.715 214.526,47.838 213.447,45.961C211.479,42.539 209.231,39.293 206.542,36.408C204.816,34.555 202.898,32.853 200.92,31.266C198.406,29.251 195.709,27.481 192.895,25.888C189.89,24.189 186.794,22.695 183.547,21.542C181.351,20.762 179.132,20.008 176.87,19.466C174.412,18.876 171.901,18.492 169.399,18.117C167.722,17.866 166.021,17.673 164.329,17.656C161.864,17.631 159.396,17.762 156.932,17.88C155.711,17.938 154.481,18.033 153.283,18.258C151.088,18.67 148.902,19.139 146.735,19.68C142.931,20.629 139.321,22.103 135.83,23.88C132.735,25.455 129.788,27.269 127.047,29.396C124.679,31.233 122.321,33.093 120.088,35.089C118.046,36.916 116.197,38.95 114.483,41.106C112.639,43.424 110.984,45.86 109.599,48.471C107.835,51.795 106.45,55.286 105.576,58.947C104.894,61.806 104.377,64.706 103.83,67.596C103.603,68.793 103.488,70.011 103.32,71.219C103.168,72.31 103.001,73.399 102.865,74.491C102.725,75.627 102.634,76.768 102.486,77.903C102.268,79.56 101.975,81.208 101.792,82.868C101.542,85.141 100.935,87.307 99.889,89.328C98.443,92.123 96.551,94.576 94.157,96.652C91.995,98.527 89.644,100.072 87.007,101.185C84.444,102.268 81.776,102.887 78.994,102.971C78.184,102.995 77.364,102.946 76.557,102.851C75.27,102.7 73.973,102.559 72.711,102.278C70.162,101.709 67.787,100.695 65.552,99.329C63.09,97.825 60.957,95.941 59.147,93.72C57.553,91.765 56.283,89.596 55.34,87.236C54.45,85.01 53.842,82.707 53.713,80.33C53.615,78.534 53.777,76.716 53.931,74.917C54.108,72.846 54.78,70.885 55.618,68.997C57.36,65.076 59.983,61.816 63.24,59.049C65.245,57.347 67.525,56.125 69.986,55.235C71.748,54.598 73.557,54.189 75.433,54.02C77.583,53.825 79.74,53.774 81.841,54.201C83.845,54.607 85.79,55.303 87.761,55.871C87.788,55.966 87.85,55.89 87.893,55.805C89.251,53.157 90.055,50.367 90.057,47.369C90.058,47.081 90.07,46.741 90.215,46.513C92.897,42.281 95.574,38.046 98.315,33.851C99.002,32.799 99.538,31.662 100.417,30.701C102.13,28.83 103.679,26.809 105.334,24.803ZM78.198,85.174C78.708,85.118 79.229,85.111 79.726,84.998C81.466,84.604 82.927,83.803 83.698,82.079C84.216,80.92 84.326,79.736 84.202,78.459C84.064,77.038 83.722,75.712 83.054,74.472C82.151,72.797 80.739,71.687 78.864,71.439C76.377,71.11 74.381,72.104 72.974,74.187C71.829,75.882 71.467,77.785 71.516,79.811C71.549,81.191 72.129,82.323 73.075,83.202C74.492,84.517 76.235,85.155 78.198,85.174Z" style="fill:rgb(167,65,111);fill-rule:nonzero;"/>
        </g>
        <g transform="matrix(4.16667,0,0,4.16667,0,5.81875)">
            <path d="M124.902,114.905C126.228,113 127.6,111.154 128.84,109.223C133.166,102.485 136.095,95.189 137.418,87.275C137.917,84.29 138.211,81.278 138.041,78.256C137.662,71.505 139.82,65.655 144.248,60.64C148.242,56.114 153.297,53.497 159.297,52.736C170.262,51.347 180.007,57.795 184.205,65.632C187.841,72.419 187.763,79.418 184.785,86.389C182.338,92.115 178.344,96.449 172.572,99.007C169.408,100.411 166.068,100.739 162.657,100.579C160.882,100.496 159.102,100.419 157.335,100.236C155.749,100.07 154.18,99.753 152.598,99.535C152.438,99.513 152.132,99.682 152.087,99.824C151.268,102.391 150.48,104.967 149.634,107.704C151.11,108.241 152.546,108.824 154.021,109.283C155.983,109.895 158.024,110.031 160.069,110.018C162.409,110.003 164.75,110.005 167.087,109.915C171.126,109.76 174.886,108.544 178.329,106.494C187.611,100.968 193.641,92.947 195.714,82.328C198.074,70.244 193.284,55.394 179.35,47.827C174.498,45.192 169.307,43.74 163.792,43.454C156.221,43.061 149.173,44.727 142.832,48.954C136.156,53.404 132.075,59.706 130.003,67.381C129.061,70.873 128.667,74.443 128.595,78.052C128.213,97.168 119.695,111.579 103.366,121.375C96.955,125.221 89.926,127.422 82.48,128.083C67.152,129.443 53.901,124.689 42.77,114.133C35.005,106.768 30.018,97.745 27.939,87.264C24.83,71.585 28.003,57.314 38.277,44.876C43.577,38.462 50.295,33.914 57.936,30.706C59.554,30.026 61.226,29.472 62.874,28.866C63.058,28.798 63.252,28.76 63.527,28.686C63.595,29.257 63.665,29.78 63.718,30.307C64.195,35.039 64.664,39.774 65.146,44.507C65.276,45.781 65.279,45.754 64.136,46.332C57.19,49.851 51.464,54.691 47.844,61.712C44.977,67.274 43.959,73.228 44.507,79.441C45.236,87.686 48.354,94.907 54.039,100.944C59.014,106.227 65.142,109.417 72.297,110.625C75.108,111.099 77.945,111.372 80.774,110.948C87.503,109.941 93.616,107.534 98.883,103.072C104.83,98.036 108.48,91.678 110.054,84.125C110.827,80.414 111.355,76.649 111.881,72.892C112.697,67.05 113.526,61.221 115.667,55.67C118.388,48.617 122.908,42.92 128.767,38.234C135.477,32.869 142.931,28.98 151.331,27.01C157.05,25.669 162.831,25.339 168.662,26.077C179.799,27.485 189.428,32.133 197.542,39.835C205.783,47.658 210.952,57.204 212.959,68.409C214.829,78.853 213.597,88.91 208.945,98.483C205.733,105.093 201.215,110.695 195.562,115.376C188.291,121.397 180.028,125.371 170.739,127.099C160.731,128.961 151.044,127.948 141.788,123.551C136.506,120.206 130.682,117.923 125.152,115.063C125.05,115.01 124.957,114.94 124.902,114.905ZM169.203,76.649C169.147,76.134 169.116,75.614 169.03,75.104C168.6,72.564 166.925,70.612 164.719,70.303C162.289,69.962 159.961,70.394 157.936,71.855C154.526,74.316 154.538,78.964 157.951,81.426C159.832,82.782 161.992,83.185 164.263,83.027C165.864,82.915 167.09,82.114 167.98,80.796C168.823,79.546 169.162,78.147 169.203,76.649Z" style="fill:rgb(167,65,111);fill-rule:nonzero;"/>
        </g>
    </g>
    <g transform="matrix(0.780698,0,0,0.780698,-0.524084,10.0168)">
        <g transform="matrix(20.7509,0,0,20.7509,40.9215,4.40972)">
            <path d="M0.356,-0.101C0.34,-0.095 0.315,-0.089 0.29,-0.089C0.209,-0.089 0.141,-0.154 0.141,-0.335C0.141,-0.519 0.216,-0.586 0.289,-0.586C0.321,-0.586 0.337,-0.58 0.353,-0.572L0.373,-0.663C0.36,-0.671 0.329,-0.68 0.285,-0.68C0.165,-0.68 0.028,-0.587 0.028,-0.328C0.028,-0.12 0.116,0.006 0.27,0.006C0.314,0.006 0.349,-0.001 0.369,-0.011L0.356,-0.101Z" style="fill:rgb(167,65,111);fill-rule:nonzero;"/>
        </g>
        <g transform="matrix(20.7509,0,0,20.7509,48.6201,4.40972)">
            <path d="M0.23,0.008C0.348,0.008 0.437,-0.092 0.437,-0.346C0.437,-0.528 0.381,-0.682 0.24,-0.682C0.104,-0.682 0.028,-0.54 0.028,-0.338C0.028,-0.134 0.095,0.008 0.229,0.008L0.23,0.008ZM0.234,-0.085C0.163,-0.085 0.138,-0.206 0.139,-0.339C0.138,-0.464 0.163,-0.589 0.234,-0.589C0.306,-0.589 0.326,-0.463 0.326,-0.341C0.326,-0.206 0.304,-0.085 0.235,-0.085L0.234,-0.085Z" style="fill:rgb(167,65,111);fill-rule:nonzero;"/>
        </g>
        <g transform="matrix(20.7509,0,0,20.7509,58.2692,4.40972)">
            <path d="M0.059,-0L0.346,-0L0.346,-0.09L0.166,-0.09L0.166,-0.674L0.059,-0.674L0.059,-0Z" style="fill:rgb(167,65,111);fill-rule:nonzero;"/>
        </g>
        <g transform="matrix(20.7509,0,0,20.7509,65.8226,4.40972)">
            <path d="M0.059,-0L0.346,-0L0.346,-0.09L0.166,-0.09L0.166,-0.674L0.059,-0.674L0.059,-0Z" style="fill:rgb(167,65,111);fill-rule:nonzero;"/>
        </g>
        <g transform="matrix(20.7509,0,0,20.7509,73.5004,4.40972)">
            <path d="M0.288,-0.175L0.324,-0L0.428,-0L0.289,-0.674L0.164,-0.674L0.014,-0L0.118,-0L0.154,-0.175L0.288,-0.175ZM0.166,-0.259L0.196,-0.413C0.204,-0.455 0.214,-0.52 0.221,-0.567L0.224,-0.567C0.231,-0.52 0.24,-0.458 0.249,-0.414L0.277,-0.259L0.166,-0.259Z" style="fill:rgb(167,65,111);fill-rule:nonzero;"/>
        </g>
        <g transform="matrix(20.7509,0,0,20.7509,82.7968,4.40972)">
            <path d="M0.059,-0.002C0.085,0.002 0.121,0.005 0.171,0.005C0.268,0.005 0.334,-0.016 0.373,-0.06C0.404,-0.093 0.422,-0.137 0.422,-0.193C0.422,-0.274 0.378,-0.338 0.301,-0.359L0.301,-0.362C0.366,-0.39 0.4,-0.447 0.4,-0.51C0.4,-0.558 0.385,-0.601 0.352,-0.63C0.311,-0.667 0.253,-0.677 0.192,-0.677C0.141,-0.677 0.095,-0.672 0.059,-0.664L0.059,-0.002ZM0.165,-0.592C0.174,-0.595 0.187,-0.596 0.203,-0.596C0.269,-0.596 0.295,-0.554 0.295,-0.498C0.295,-0.437 0.251,-0.393 0.196,-0.393L0.165,-0.393L0.165,-0.592ZM0.165,-0.313L0.196,-0.313C0.257,-0.313 0.312,-0.273 0.312,-0.194C0.312,-0.117 0.264,-0.078 0.199,-0.078C0.185,-0.078 0.174,-0.079 0.165,-0.081L0.165,-0.313Z" style="fill:rgb(167,65,111);fill-rule:nonzero;"/>
        </g>
        <g transform="matrix(20.7509,0,0,20.7509,92.1969,4.40972)">
            <path d="M0.026,-0.022C0.047,-0.008 0.098,0.006 0.148,0.006C0.269,0.006 0.355,-0.071 0.355,-0.192C0.355,-0.264 0.321,-0.329 0.236,-0.385C0.167,-0.429 0.14,-0.453 0.14,-0.505C0.14,-0.546 0.169,-0.587 0.23,-0.587C0.266,-0.587 0.294,-0.576 0.313,-0.564L0.332,-0.656C0.314,-0.667 0.275,-0.68 0.232,-0.68C0.106,-0.68 0.035,-0.597 0.035,-0.492C0.035,-0.419 0.087,-0.352 0.162,-0.304C0.217,-0.266 0.25,-0.235 0.25,-0.181C0.25,-0.125 0.214,-0.087 0.148,-0.087C0.113,-0.087 0.069,-0.099 0.044,-0.114L0.026,-0.022Z" style="fill:rgb(167,65,111);fill-rule:nonzero;"/>
        </g>
        <g transform="matrix(20.7509,0,0,20.7509,100.062,4.40972)">
            <path d="M0.056,-0.674L0.056,-0.243C0.056,-0.076 0.116,0.008 0.239,0.008C0.355,0.008 0.424,-0.074 0.424,-0.248L0.424,-0.674L0.317,-0.674L0.317,-0.23C0.317,-0.12 0.286,-0.086 0.239,-0.086C0.197,-0.086 0.163,-0.121 0.163,-0.23L0.163,-0.674L0.056,-0.674Z" style="fill:rgb(167,65,111);fill-rule:nonzero;"/>
        </g>
        <g transform="matrix(20.7509,0,0,20.7509,110.043,4.40972)">
            <path d="M0.482,-0L0.579,-0L0.539,-0.674L0.424,-0.674L0.361,-0.401C0.341,-0.313 0.326,-0.243 0.314,-0.167L0.312,-0.167C0.299,-0.243 0.282,-0.314 0.261,-0.401L0.196,-0.674L0.083,-0.674L0.038,-0L0.131,-0L0.143,-0.257C0.147,-0.337 0.151,-0.426 0.152,-0.502L0.155,-0.502C0.167,-0.427 0.185,-0.343 0.203,-0.275L0.269,-0.008L0.342,-0.008L0.412,-0.282C0.428,-0.347 0.446,-0.428 0.459,-0.502L0.462,-0.502C0.461,-0.428 0.465,-0.336 0.469,-0.26L0.482,-0Z" style="fill:rgb(167,65,111);fill-rule:nonzero;"/>
        </g>
        <g transform="matrix(20.7509,0,0,20.7509,122.908,4.40972)">
            <path d="M0.482,-0L0.579,-0L0.539,-0.674L0.424,-0.674L0.361,-0.401C0.341,-0.313 0.326,-0.243 0.314,-0.167L0.312,-0.167C0.299,-0.243 0.282,-0.314 0.261,-0.401L0.196,-0.674L0.083,-0.674L0.038,-0L0.131,-0L0.143,-0.257C0.147,-0.337 0.151,-0.426 0.152,-0.502L0.155,-0.502C0.167,-0.427 0.185,-0.343 0.203,-0.275L0.269,-0.008L0.342,-0.008L0.412,-0.282C0.428,-0.347 0.446,-0.428 0.459,-0.502L0.462,-0.502C0.461,-0.428 0.465,-0.336 0.469,-0.26L0.482,-0Z" style="fill:rgb(167,65,111);fill-rule:nonzero;"/>
        </g>
        <g transform="matrix(20.7509,0,0,20.7509,135.774,4.40972)">
            <rect x="0.059" y="-0.674" width="0.107" height="0.674" style="fill:rgb(167,65,111);fill-rule:nonzero;"/>
        </g>
        <g transform="matrix(20.7509,0,0,20.7509,140.463,4.40972)">
            <path d="M0.134,-0L0.241,-0L0.241,-0.576L0.362,-0.576L0.362,-0.674L0.013,-0.674L0.013,-0.576L0.134,-0.576L0.134,-0Z" style="fill:rgb(167,65,111);fill-rule:nonzero;"/>
        </g>
    </g>
</svg>
