<?xml version="1.0" encoding="utf-8"?>
<!-- Generator: Adobe Illustrator 22.1.0, SVG Export Plug-In . SVG Version: 6.00 Build 0)  -->
<svg version="1.1" id="Layer_1" xmlns="http://www.w3.org/2000/svg" xmlns:xlink="http://www.w3.org/1999/xlink" x="0px" y="0px"
	 viewBox="0 0 366.4 68.5" style="enable-background:new 0 0 366.4 68.5;" xml:space="preserve">
<style type="text/css">
	.st0{fill:#FFFFFF;}
	.st1{fill:none;}
	.st2{fill:#5364AE;}
	.st3{fill:none;stroke:#FFFFFF;stroke-width:0.608;stroke-miterlimit:10;}
	.st4{fill:#742774;}
	.st5{fill:#1F959E;}
	.st6{fill:none;stroke:#FFFFFF;stroke-width:1.5;stroke-miterlimit:10;}
	.st7{clip-path:url(#SVGID_2_);fill:#5364AE;}
	.st8{clip-path:url(#SVGID_2_);fill:#1F959E;}
	.st9{clip-path:url(#SVGID_2_);fill:#742774;}
	.st10{clip-path:url(#SVGID_4_);fill:#5364AE;}
	.st11{clip-path:url(#SVGID_4_);fill:none;stroke:#FFFFFF;stroke-width:0.608;stroke-miterlimit:10;}
	.st12{clip-path:url(#SVGID_4_);fill:#742774;}
	.st13{clip-path:url(#SVGID_4_);fill:#1F959E;}
	.st14{clip-path:url(#SVGID_4_);}
	.st15{clip-path:url(#SVGID_4_);fill:none;stroke:#1F959E;stroke-width:1.5;stroke-miterlimit:10;}
</style>
<polygon class="st2" points="261,31.1 261,23.9 259.2,31.1 258.8,31.1 257,23.9 257,31.1 255.9,31.1 255.9,21.5 257.4,21.5 
	259,27.9 260.7,21.5 262.1,21.5 262.1,31.1 "/>
<g>
	<defs>
		<rect id="SVGID_1_" y="0" width="366.4" height="68.5"/>
	</defs>
	<clipPath id="SVGID_2_">
		<use xlink:href="#SVGID_1_"  style="overflow:visible;"/>
	</clipPath>
	<path class="st7" d="M263.4,22.4c0-0.4,0.3-0.7,0.7-0.7c0.4,0,0.7,0.3,0.7,0.7s-0.3,0.7-0.7,0.7C263.7,23.1,263.4,22.8,263.4,22.4
		 M263.5,24.1h1v6.9h-1V24.1z"/>
	<path class="st7" d="M265.7,27.6c0-2.1,0.8-3.6,2.3-3.6c0.7,0,1.1,0.3,1.4,0.6l-0.4,0.7c-0.3-0.4-0.6-0.5-0.9-0.5
		c-1,0-1.4,1.3-1.4,2.8c0,1.4,0.4,2.8,1.4,2.8c0.3,0,0.6-0.1,0.9-0.5l0.4,0.7c-0.3,0.4-0.8,0.6-1.4,0.6
		C266.5,31.2,265.7,29.6,265.7,27.6"/>
	<path class="st7" d="M270.4,31.1v-6.9h1v1.1c0.3-0.7,0.9-1.2,1.6-1.2v1c-0.1,0-0.2,0-0.3,0c-0.6,0-1.1,0.6-1.3,1.2v4.9H270.4z"/>
	<path class="st7" d="M273.3,27.6c0-1.9,0.6-3.6,2.2-3.6c1.6,0,2.2,1.7,2.2,3.6c0,1.9-0.6,3.6-2.2,3.6
		C273.9,31.2,273.3,29.5,273.3,27.6 M276.7,27.6c0-1.4-0.2-2.8-1.2-2.8c-0.9,0-1.2,1.4-1.2,2.8c0,1.4,0.2,2.8,1.2,2.8
		C276.5,30.4,276.7,29,276.7,27.6"/>
	<path class="st7" d="M278.3,30.4l0.5-0.7c0.3,0.4,0.8,0.7,1.3,0.7c0.6,0,1-0.4,1-1c0-1.6-2.6-1.5-2.6-3.7c0-1,0.7-1.7,1.8-1.7
		c0.7,0,1.2,0.3,1.6,0.8l-0.5,0.7c-0.3-0.4-0.7-0.6-1.2-0.6c-0.6,0-0.9,0.4-0.9,0.9c0,1.5,2.6,1.4,2.6,3.7c0,1.1-0.8,1.9-1.9,1.9
		C279.3,31.2,278.7,30.9,278.3,30.4"/>
	<path class="st7" d="M282.8,27.6c0-1.9,0.6-3.6,2.2-3.6c1.6,0,2.2,1.7,2.2,3.6c0,1.9-0.6,3.6-2.2,3.6
		C283.4,31.2,282.8,29.5,282.8,27.6 M286.2,27.6c0-1.4-0.2-2.8-1.2-2.8c-0.9,0-1.2,1.4-1.2,2.8c0,1.4,0.2,2.8,1.2,2.8
		C285.9,30.4,286.2,29,286.2,27.6"/>
	<path class="st7" d="M288.2,31.1V25h-0.7v-0.9h0.7V23c0-1,0.5-1.6,1.5-1.6c0.4,0,0.7,0.1,1,0.4l-0.3,0.8c-0.2-0.2-0.3-0.3-0.5-0.3
		c-0.4,0-0.6,0.3-0.6,0.7v1.2h0.9V25h-0.9v6.1H288.2z"/>
	<path class="st7" d="M291.3,29.7V25h-0.7v-0.9h0.7v-1.9h1v1.9h0.9V25h-0.9v4.6c0,0.5,0.1,0.8,0.4,0.8c0.2,0,0.4-0.1,0.5-0.2
		l0.3,0.7c-0.2,0.2-0.5,0.4-1,0.4C291.7,31.2,291.3,30.8,291.3,29.7"/>
	<polygon class="st7" points="297.7,31.1 297.7,22.5 296.2,22.5 296.2,21.5 300.3,21.5 300.3,22.5 298.8,22.5 298.8,31.1 	"/>
	<path class="st7" d="M300.6,27.6c0-2,0.7-3.6,2.2-3.6c1.6,0,2.1,1.6,2.1,3.6v0.3h-3.4c0,1.5,0.5,2.5,1.5,2.5c0.4,0,0.8-0.3,1.1-0.8
		l0.6,0.5c-0.4,0.7-1.1,1.1-1.8,1.1C301.3,31.2,300.6,29.7,300.6,27.6 M302.8,24.8c-1,0-1.2,1.4-1.2,2.4h2.4
		C304,26.1,303.7,24.8,302.8,24.8"/>
	<path class="st7" d="M308.9,31.1v-0.7c-0.3,0.6-0.9,0.9-1.3,0.9c-1.1,0-1.8-0.9-1.8-2.3c0-1.4,0.7-2.3,1.8-2.3c0.5,0,1,0.2,1.3,0.8
		v-1.1c0-1-0.3-1.5-1.1-1.5c-0.5,0-0.9,0.2-1.4,0.7l-0.4-0.7c0.6-0.6,1.3-0.9,1.9-0.9c1.3,0,1.9,0.7,1.9,2.2v4.9H308.9z M308.9,29.6
		v-1.3c-0.2-0.6-0.6-0.9-1.1-0.9c-0.7,0-1,0.7-1,1.6c0,0.8,0.3,1.6,1,1.6C308.2,30.5,308.6,30.2,308.9,29.6"/>
	<path class="st7" d="M316.8,31.1v-5.3c0-0.6-0.2-0.9-0.7-0.9c-0.5,0-1,0.6-1.2,1.1v5.1h-1v-5.3c0-0.6-0.2-0.9-0.7-0.9
		c-0.5,0-1,0.6-1.2,1.1v5.1h-1v-6.9h1v1c0.3-0.6,0.9-1.1,1.5-1.1c0.7,0,1.2,0.4,1.3,1.2c0.3-0.6,0.9-1.2,1.6-1.2
		c0.8,0,1.3,0.4,1.3,1.5v5.6H316.8z"/>
	<path class="st7" d="M318.7,30.4l0.5-0.7c0.3,0.4,0.8,0.7,1.3,0.7c0.6,0,1-0.4,1-1c0-1.6-2.6-1.5-2.6-3.7c0-1,0.7-1.7,1.8-1.7
		c0.7,0,1.2,0.3,1.6,0.8l-0.5,0.7c-0.3-0.4-0.7-0.6-1.2-0.6c-0.6,0-0.9,0.4-0.9,0.9c0,1.5,2.6,1.4,2.6,3.7c0,1.1-0.8,1.9-1.9,1.9
		C319.8,31.2,319.2,30.9,318.7,30.4"/>
	<polygon class="st8" points="261,47.2 261,40 259.2,47.2 258.8,47.2 257,40 257,47.2 255.9,47.2 255.9,37.6 257.4,37.6 259,44.1 
		260.7,37.6 262.1,37.6 262.1,47.2 	"/>
	<path class="st8" d="M263.4,38.6c0-0.4,0.3-0.7,0.7-0.7c0.4,0,0.7,0.3,0.7,0.7s-0.3,0.7-0.7,0.7C263.7,39.3,263.4,39,263.4,38.6
		 M263.5,40.3h1v6.9h-1V40.3z"/>
	<path class="st8" d="M265.7,43.7c0-2.1,0.8-3.6,2.3-3.6c0.7,0,1.1,0.3,1.4,0.6l-0.4,0.7c-0.3-0.4-0.6-0.5-0.9-0.5
		c-1,0-1.4,1.3-1.4,2.8c0,1.4,0.4,2.8,1.4,2.8c0.3,0,0.6-0.1,0.9-0.5l0.4,0.7c-0.3,0.4-0.8,0.6-1.4,0.6
		C266.5,47.4,265.7,45.8,265.7,43.7"/>
	<path class="st8" d="M270.4,47.2v-6.9h1v1.1c0.3-0.7,0.9-1.2,1.6-1.2v1c-0.1,0-0.2,0-0.3,0c-0.6,0-1.1,0.6-1.3,1.2v4.9H270.4z"/>
	<path class="st8" d="M273.3,43.7c0-1.9,0.6-3.6,2.2-3.6c1.6,0,2.2,1.7,2.2,3.6s-0.6,3.6-2.2,3.6C273.9,47.4,273.3,45.6,273.3,43.7
		 M276.7,43.7c0-1.4-0.2-2.8-1.2-2.8c-0.9,0-1.2,1.4-1.2,2.8c0,1.4,0.2,2.8,1.2,2.8C276.5,46.5,276.7,45.1,276.7,43.7"/>
	<path class="st8" d="M278.3,46.5l0.5-0.7c0.3,0.4,0.8,0.7,1.3,0.7c0.6,0,1-0.4,1-1c0-1.6-2.6-1.5-2.6-3.7c0-1,0.7-1.7,1.8-1.7
		c0.7,0,1.2,0.3,1.6,0.8l-0.5,0.7c-0.3-0.4-0.7-0.6-1.2-0.6c-0.6,0-0.9,0.4-0.9,0.9c0,1.5,2.6,1.4,2.6,3.7c0,1.1-0.8,1.9-1.9,1.9
		C279.3,47.4,278.7,47.1,278.3,46.5"/>
	<path class="st8" d="M282.8,43.7c0-1.9,0.6-3.6,2.2-3.6c1.6,0,2.2,1.7,2.2,3.6s-0.6,3.6-2.2,3.6C283.4,47.4,282.8,45.6,282.8,43.7
		 M286.2,43.7c0-1.4-0.2-2.8-1.2-2.8c-0.9,0-1.2,1.4-1.2,2.8c0,1.4,0.2,2.8,1.2,2.8C285.9,46.5,286.2,45.1,286.2,43.7"/>
	<path class="st8" d="M288.2,47.2v-6.1h-0.7v-0.9h0.7v-1.2c0-1,0.5-1.6,1.5-1.6c0.4,0,0.7,0.1,1,0.4l-0.3,0.8
		c-0.2-0.2-0.3-0.3-0.5-0.3c-0.4,0-0.6,0.3-0.6,0.7v1.2h0.9v0.9h-0.9v6.1H288.2z"/>
	<path class="st8" d="M291.3,45.9v-4.7h-0.7v-0.9h0.7v-1.9h1v1.9h0.9v0.9h-0.9v4.6c0,0.5,0.1,0.8,0.4,0.8c0.2,0,0.4-0.1,0.5-0.2
		l0.3,0.7c-0.2,0.2-0.5,0.4-1,0.4C291.7,47.4,291.3,46.9,291.3,45.9"/>
	<path class="st8" d="M296.2,46.5l0.5-0.9c0.3,0.5,0.9,0.8,1.4,0.8c0.7,0,1.2-0.6,1.2-1.5c0-2.2-3-2.3-3-5.1c0-1.4,0.9-2.4,2.2-2.4
		c0.7,0,1.3,0.2,1.7,0.7l-0.5,0.8c-0.3-0.4-0.7-0.5-1.2-0.5c-0.6,0-1.1,0.5-1.1,1.3c0,1.9,3,2.2,3,5.1c0,1.4-0.9,2.5-2.3,2.5
		C297.4,47.4,296.8,47.1,296.2,46.5"/>
	<path class="st8" d="M304.6,47.2v-5.3c0-0.6-0.2-0.9-0.7-0.9c-0.5,0-1,0.6-1.2,1.1v5.1h-1v-9.6h1v3.6c0.3-0.6,0.9-1.1,1.5-1.1
		c0.9,0,1.3,0.5,1.3,1.5v5.6H304.6z"/>
	<path class="st8" d="M309.9,47.2v-0.7c-0.3,0.6-0.9,0.9-1.3,0.9c-1.1,0-1.8-0.9-1.8-2.3c0-1.4,0.7-2.3,1.8-2.3c0.5,0,1,0.2,1.3,0.8
		v-1.1c0-1-0.3-1.5-1.1-1.5c-0.5,0-0.9,0.2-1.4,0.7L307,41c0.6-0.6,1.3-0.9,1.9-0.9c1.3,0,1.9,0.7,1.9,2.2v4.9H309.9z M309.9,45.8
		v-1.3c-0.2-0.6-0.6-0.9-1.1-0.9c-0.7,0-1,0.7-1,1.6c0,0.8,0.3,1.6,1,1.6C309.2,46.7,309.7,46.4,309.9,45.8"/>
	<path class="st8" d="M312.4,47.2v-6.9h1v1.1c0.3-0.7,0.9-1.2,1.6-1.2v1c-0.1,0-0.2,0-0.3,0c-0.6,0-1.1,0.6-1.3,1.2v4.9H312.4z"/>
	<path class="st8" d="M315.6,43.8c0-2,0.7-3.6,2.2-3.6c1.6,0,2.1,1.6,2.1,3.6v0.3h-3.4c0,1.5,0.5,2.5,1.5,2.5c0.4,0,0.8-0.3,1.1-0.8
		l0.6,0.5c-0.4,0.7-1.1,1.1-1.8,1.1C316.4,47.4,315.6,45.8,315.6,43.8 M317.8,40.9c-1,0-1.2,1.4-1.2,2.4h2.4
		C319,42.3,318.8,40.9,317.8,40.9"/>
	<path class="st8" d="M321.3,47.2v-9.6h2c1.6,0,2.3,1.3,2.3,2.9s-0.7,2.9-2.3,2.9h-0.9v3.9H321.3z M324.4,40.5
		c0-1.1-0.4-1.9-1.3-1.9h-0.8v3.8h0.8C324,42.4,324.4,41.6,324.4,40.5"/>
	<path class="st8" d="M326.4,43.8c0-1.9,0.6-3.6,2.2-3.6c1.6,0,2.2,1.7,2.2,3.6s-0.6,3.6-2.2,3.6C327,47.4,326.4,45.7,326.4,43.8
		 M329.8,43.8c0-1.4-0.2-2.8-1.2-2.8c-0.9,0-1.2,1.4-1.2,2.8c0,1.4,0.2,2.8,1.2,2.8C329.5,46.5,329.8,45.1,329.8,43.8"/>
	<path class="st8" d="M331.9,38.6c0-0.4,0.3-0.7,0.7-0.7c0.4,0,0.7,0.3,0.7,0.7s-0.3,0.7-0.7,0.7C332.2,39.3,331.9,39,331.9,38.6
		 M332,40.3h1v6.9h-1V40.3z"/>
	<path class="st8" d="M337.4,47.2v-5.3c0-0.6-0.2-0.9-0.7-0.9c-0.5,0-1,0.6-1.2,1.1v5.1h-1v-6.9h1v1c0.3-0.6,0.9-1.1,1.6-1.1
		c0.9,0,1.3,0.5,1.3,1.5v5.6H337.4z"/>
	<path class="st8" d="M340.1,45.9v-4.7h-0.7v-0.9h0.7v-1.9h1v1.9h0.9v0.9h-0.9v4.6c0,0.5,0.1,0.8,0.4,0.8c0.2,0,0.4-0.1,0.5-0.2
		l0.3,0.7c-0.2,0.2-0.5,0.4-1,0.4C340.5,47.4,340.1,46.9,340.1,45.9"/>
	<polygon class="st9" points="261,63.4 261,56.2 259.2,63.4 258.8,63.4 257,56.2 257,63.4 255.9,63.4 255.9,53.8 257.4,53.8 
		259,60.2 260.7,53.8 262.1,53.8 262.1,63.4 	"/>
	<path class="st9" d="M263.4,54.7c0-0.4,0.3-0.7,0.7-0.7c0.4,0,0.7,0.3,0.7,0.7s-0.3,0.7-0.7,0.7C263.7,55.4,263.4,55.1,263.4,54.7
		 M263.5,56.4h1v6.9h-1V56.4z"/>
	<path class="st9" d="M265.7,59.9c0-2.1,0.8-3.6,2.3-3.6c0.7,0,1.1,0.3,1.4,0.6l-0.4,0.7c-0.3-0.4-0.6-0.5-0.9-0.5
		c-1,0-1.4,1.3-1.4,2.8c0,1.4,0.4,2.8,1.4,2.8c0.3,0,0.6-0.1,0.9-0.5l0.4,0.7c-0.3,0.4-0.8,0.6-1.4,0.6
		C266.5,63.5,265.7,61.9,265.7,59.9"/>
	<path class="st9" d="M270.4,63.4v-6.9h1v1.1c0.3-0.7,0.9-1.2,1.6-1.2v1c-0.1,0-0.2,0-0.3,0c-0.6,0-1.1,0.6-1.3,1.2v4.9H270.4z"/>
	<path class="st9" d="M273.3,59.9c0-1.9,0.6-3.6,2.2-3.6c1.6,0,2.2,1.7,2.2,3.6c0,1.9-0.6,3.6-2.2,3.6
		C273.9,63.5,273.3,61.8,273.3,59.9 M276.7,59.9c0-1.4-0.2-2.8-1.2-2.8c-0.9,0-1.2,1.4-1.2,2.8c0,1.4,0.2,2.8,1.2,2.8
		C276.5,62.7,276.7,61.3,276.7,59.9"/>
	<path class="st9" d="M278.3,62.7l0.5-0.7c0.3,0.4,0.8,0.7,1.3,0.7c0.6,0,1-0.4,1-1c0-1.6-2.6-1.5-2.6-3.7c0-1,0.7-1.7,1.8-1.7
		c0.7,0,1.2,0.3,1.6,0.8l-0.5,0.7c-0.3-0.4-0.7-0.6-1.2-0.6c-0.6,0-0.9,0.4-0.9,0.9c0,1.5,2.6,1.4,2.6,3.7c0,1.1-0.8,1.9-1.9,1.9
		C279.3,63.5,278.7,63.2,278.3,62.7"/>
	<path class="st9" d="M282.8,59.9c0-1.9,0.6-3.6,2.2-3.6c1.6,0,2.2,1.7,2.2,3.6c0,1.9-0.6,3.6-2.2,3.6
		C283.4,63.5,282.8,61.8,282.8,59.9 M286.2,59.9c0-1.4-0.2-2.8-1.2-2.8c-0.9,0-1.2,1.4-1.2,2.8c0,1.4,0.2,2.8,1.2,2.8
		C285.9,62.7,286.2,61.3,286.2,59.9"/>
	<path class="st9" d="M288.2,63.4v-6.1h-0.7v-0.9h0.7v-1.2c0-1,0.5-1.6,1.5-1.6c0.4,0,0.7,0.1,1,0.4l-0.3,0.8
		c-0.2-0.2-0.3-0.3-0.5-0.3c-0.4,0-0.6,0.3-0.6,0.7v1.2h0.9v0.9h-0.9v6.1H288.2z"/>
	<path class="st9" d="M291.3,62v-4.7h-0.7v-0.9h0.7v-1.9h1v1.9h0.9v0.9h-0.9v4.6c0,0.5,0.1,0.8,0.4,0.8c0.2,0,0.4-0.1,0.5-0.2
		l0.3,0.7c-0.2,0.2-0.5,0.4-1,0.4C291.7,63.5,291.3,63.1,291.3,62"/>
	<path class="st9" d="M296.9,63.4v-9.6h2c1.6,0,2.3,1.3,2.3,2.9s-0.7,2.9-2.3,2.9H298v3.9H296.9z M300.1,56.7c0-1.1-0.4-1.9-1.3-1.9
		H298v3.8h0.8C299.7,58.6,300.1,57.8,300.1,56.7"/>
	<path class="st9" d="M301.6,59.9c0-1.9,0.6-3.6,2.2-3.6c1.6,0,2.2,1.7,2.2,3.6s-0.6,3.6-2.2,3.6C302.2,63.5,301.6,61.8,301.6,59.9
		 M305,59.9c0-1.4-0.2-2.8-1.2-2.8c-0.9,0-1.2,1.4-1.2,2.8c0,1.4,0.2,2.8,1.2,2.8C304.7,62.7,305,61.3,305,59.9"/>
	<polygon class="st9" points="311.4,63.4 310.3,57.8 309.1,63.4 308.1,63.4 306.6,56.4 307.6,56.4 308.6,62 309.8,56.4 310.8,56.4 
		311.9,62 312.9,56.4 314,56.4 312.5,63.4 	"/>
	<path class="st9" d="M314.5,59.9c0-2,0.7-3.6,2.2-3.6c1.6,0,2.1,1.6,2.1,3.6v0.3h-3.4c0,1.5,0.5,2.5,1.5,2.5c0.4,0,0.8-0.3,1.1-0.8
		l0.6,0.5c-0.4,0.7-1.1,1.1-1.8,1.1C315.3,63.5,314.5,62,314.5,59.9 M316.7,57.1c-1,0-1.2,1.4-1.2,2.4h2.4
		C317.9,58.4,317.7,57.1,316.7,57.1"/>
	<path class="st9" d="M320,63.4v-6.9h1v1.1c0.3-0.7,0.9-1.2,1.6-1.2v1c-0.1,0-0.2,0-0.3,0c-0.6,0-1.1,0.6-1.3,1.2v4.9H320z"/>
	<path class="st9" d="M326.1,63.4v-9.6h2c1.6,0,2.3,1.3,2.3,2.9s-0.7,2.9-2.3,2.9h-0.9v3.9H326.1z M329.2,56.7
		c0-1.1-0.4-1.9-1.3-1.9h-0.8v3.8h0.8C328.8,58.6,329.2,57.8,329.2,56.7"/>
	<rect x="331.3" y="53.8" class="st9" width="1" height="9.6"/>
	<path class="st9" d="M336.6,63.4v-0.7c-0.3,0.6-0.9,0.9-1.3,0.9c-1.1,0-1.8-0.9-1.8-2.3c0-1.4,0.7-2.3,1.8-2.3c0.5,0,1,0.2,1.3,0.8
		v-1.1c0-1-0.3-1.5-1.1-1.5c-0.5,0-0.9,0.2-1.4,0.7l-0.4-0.7c0.6-0.6,1.3-0.9,1.9-0.9c1.3,0,1.9,0.7,1.9,2.2v4.9H336.6z M336.6,61.9
		v-1.3c-0.2-0.6-0.6-0.9-1.1-0.9c-0.7,0-1,0.7-1,1.6c0,0.8,0.3,1.6,1,1.6C336,62.8,336.4,62.5,336.6,61.9"/>
	<path class="st9" d="M339.1,62.1v-4.7h-0.7v-0.9h0.7v-1.9h1v1.9h0.9v0.9h-0.9v4.6c0,0.5,0.1,0.8,0.4,0.8c0.2,0,0.4-0.1,0.5-0.2
		l0.3,0.7c-0.2,0.2-0.5,0.4-1,0.4C339.5,63.5,339.1,63.1,339.1,62.1"/>
	<path class="st9" d="M342.4,63.4v-6.1h-0.7v-0.9h0.7v-1.2c0-1,0.5-1.6,1.5-1.6c0.4,0,0.7,0.1,1,0.4l-0.3,0.8
		c-0.2-0.2-0.3-0.3-0.5-0.3c-0.4,0-0.6,0.3-0.6,0.7v1.2h0.9v0.9h-0.9v6.1H342.4z"/>
	<path class="st9" d="M344.8,59.9c0-1.9,0.6-3.6,2.2-3.6c1.6,0,2.2,1.7,2.2,3.6s-0.6,3.6-2.2,3.6C345.4,63.5,344.8,61.8,344.8,59.9
		 M348.2,59.9c0-1.4-0.2-2.8-1.2-2.8c-0.9,0-1.2,1.4-1.2,2.8c0,1.4,0.2,2.8,1.2,2.8C347.9,62.7,348.2,61.3,348.2,59.9"/>
	<path class="st9" d="M350.2,63.4v-6.9h1v1.1c0.3-0.7,0.9-1.2,1.6-1.2v1c-0.1,0-0.2,0-0.3,0c-0.6,0-1.1,0.6-1.3,1.2v4.9H350.2z"/>
	<path class="st9" d="M359.4,63.4v-5.3c0-0.6-0.2-0.9-0.7-0.9c-0.5,0-1,0.6-1.2,1.1v5.1h-1v-5.3c0-0.6-0.2-0.9-0.7-0.9
		c-0.5,0-1,0.6-1.2,1.1v5.1h-1v-6.9h1v1c0.3-0.6,0.9-1.1,1.5-1.1c0.7,0,1.2,0.4,1.3,1.2c0.3-0.6,0.9-1.2,1.6-1.2
		c0.8,0,1.3,0.4,1.3,1.5v5.6H359.4z"/>
	<polygon class="st7" points="261,14.9 261,7.7 259.2,14.9 258.8,14.9 257,7.7 257,14.9 255.9,14.9 255.9,5.3 257.4,5.3 259,11.7 
		260.7,5.3 262.1,5.3 262.1,14.9 	"/>
	<path class="st7" d="M263.4,6.3c0-0.4,0.3-0.7,0.7-0.7c0.4,0,0.7,0.3,0.7,0.7c0,0.4-0.3,0.7-0.7,0.7C263.7,7,263.4,6.7,263.4,6.3
		 M263.6,8h1v6.9h-1V8z"/>
	<path class="st7" d="M265.7,11.4c0-2.1,0.8-3.6,2.3-3.6c0.7,0,1.1,0.3,1.4,0.6L269,9.2c-0.3-0.4-0.6-0.5-0.9-0.5
		c-1,0-1.4,1.3-1.4,2.8c0,1.4,0.4,2.8,1.4,2.8c0.3,0,0.6-0.1,0.9-0.5l0.4,0.7c-0.3,0.4-0.8,0.6-1.4,0.6
		C266.5,15.1,265.7,13.5,265.7,11.4"/>
	<path class="st7" d="M270.4,14.9V8h1v1.1c0.3-0.7,0.9-1.2,1.6-1.2v1c-0.1,0-0.2,0-0.3,0c-0.6,0-1.1,0.6-1.3,1.2v4.9H270.4z"/>
	<path class="st7" d="M273.3,11.4c0-1.9,0.6-3.6,2.2-3.6c1.6,0,2.2,1.7,2.2,3.6c0,1.9-0.6,3.6-2.2,3.6
		C274,15.1,273.3,13.3,273.3,11.4 M276.7,11.4c0-1.4-0.2-2.8-1.2-2.8c-0.9,0-1.2,1.4-1.2,2.8c0,1.4,0.2,2.8,1.2,2.8
		C276.5,14.2,276.7,12.8,276.7,11.4"/>
	<path class="st7" d="M278.3,14.2l0.5-0.7c0.3,0.4,0.8,0.7,1.3,0.7c0.6,0,1-0.4,1-1c0-1.6-2.6-1.5-2.6-3.7c0-1,0.7-1.7,1.8-1.7
		c0.7,0,1.2,0.3,1.6,0.8l-0.5,0.7c-0.3-0.4-0.7-0.6-1.2-0.6c-0.6,0-0.9,0.4-0.9,0.9c0,1.5,2.6,1.4,2.6,3.7c0,1.1-0.8,1.9-1.9,1.9
		C279.3,15.1,278.7,14.8,278.3,14.2"/>
	<path class="st7" d="M282.8,11.4c0-1.9,0.6-3.6,2.2-3.6c1.6,0,2.2,1.7,2.2,3.6c0,1.9-0.6,3.6-2.2,3.6
		C283.4,15.1,282.8,13.3,282.8,11.4 M286.2,11.4c0-1.4-0.2-2.8-1.2-2.8c-0.9,0-1.2,1.4-1.2,2.8c0,1.4,0.2,2.8,1.2,2.8
		C285.9,14.2,286.2,12.8,286.2,11.4"/>
	<path class="st7" d="M288.3,14.9V8.8h-0.7V8h0.7V6.8c0-1,0.5-1.6,1.5-1.6c0.4,0,0.7,0.1,1,0.4l-0.3,0.8c-0.2-0.2-0.3-0.3-0.5-0.3
		c-0.4,0-0.6,0.3-0.6,0.7V8h0.9v0.9h-0.9v6.1H288.3z"/>
	<path class="st7" d="M291.3,13.6V8.8h-0.7V8h0.7V6.1h1V8h0.9v0.9h-0.9v4.6c0,0.5,0.1,0.8,0.4,0.8c0.2,0,0.4-0.1,0.5-0.2l0.3,0.7
		c-0.2,0.2-0.5,0.4-1,0.4C291.7,15.1,291.3,14.6,291.3,13.6"/>
	<polygon class="st7" points="298.8,14.9 296.9,5.3 298,5.3 299.4,13.5 300.8,5.3 301.9,5.3 300,14.9 	"/>
	<path class="st7" d="M302.4,6.3c0-0.4,0.3-0.7,0.7-0.7c0.4,0,0.7,0.3,0.7,0.7S303.5,7,303.1,7C302.7,7,302.4,6.7,302.4,6.3
		 M302.6,8h1v6.9h-1V8z"/>
	<polygon class="st7" points="306,14.9 304.3,8 305.4,8 306.5,13.7 307.7,8 308.7,8 307,14.9 	"/>
	<path class="st7" d="M312.3,14.9v-0.7c-0.3,0.6-0.9,0.9-1.3,0.9c-1.1,0-1.8-0.9-1.8-2.3c0-1.4,0.7-2.3,1.8-2.3c0.5,0,1,0.2,1.3,0.8
		v-1.1c0-1-0.3-1.5-1.1-1.5c-0.5,0-0.9,0.2-1.4,0.7l-0.4-0.7c0.6-0.6,1.3-0.9,1.9-0.9c1.3,0,1.9,0.7,1.9,2.2v4.9H312.3z M312.3,13.5
		v-1.3c-0.2-0.6-0.6-0.9-1.1-0.9c-0.7,0-1,0.7-1,1.6c0,0.8,0.3,1.6,1,1.6C311.6,14.4,312,14.1,312.3,13.5"/>
</g>
<g>
	<defs>
		<rect id="SVGID_3_" y="0" width="366.4" height="68.5"/>
	</defs>
	<clipPath id="SVGID_4_">
		<use xlink:href="#SVGID_3_"  style="overflow:visible;"/>
	</clipPath>
	<path class="st10" d="M44.7,31.1c-1.1,6.6-6.4,11.8-13.1,12.7c-0.6,0.1-1.3,0.1-1.9,0.1c-3.8,0-7.3-1.4-10-3.8
		c-0.9-0.8-1.7-1.7-2.4-2.6c-1.8-2.5-2.8-5.5-2.8-8.8c0-1.3,0.2-2.5,0.4-3.7c1.4-5.8,6.2-10.3,12.1-11.3c3.9-3,8.7-4.8,14-4.8
		c0.1,0,0.2,0,0.2,0c-3.4-2-7.4-3.1-11.6-3.1C17,5.8,6.8,16,6.8,28.7c0,3.9,1,7.5,2.6,10.7c2.5,4.6,6.5,8.3,11.3,10.4
		c2.7,1.1,5.6,1.8,8.7,1.8c0.1,0,0.2,0,0.2,0c5.3,0,10.1-1.8,14-4.8c1.2-1,2.4-2,3.4-3.2c0.3-1.2,0.4-2.4,0.4-3.6
		C47.5,36.6,46.5,33.6,44.7,31.1"/>
	<path class="st11" d="M44.7,31.1c-1.1,6.6-6.4,11.8-13.1,12.7c-0.6,0.1-1.3,0.1-1.9,0.1c-3.8,0-7.3-1.4-10-3.8
		c-0.9-0.8-1.7-1.7-2.4-2.6c-1.8-2.5-2.8-5.5-2.8-8.8c0-1.3,0.2-2.5,0.4-3.7c1.4-5.8,6.2-10.3,12.1-11.3c3.9-3,8.7-4.8,14-4.8
		c0.1,0,0.2,0,0.2,0c-3.4-2-7.4-3.1-11.6-3.1C17,5.8,6.8,16,6.8,28.7c0,3.9,1,7.5,2.6,10.7c2.5,4.6,6.5,8.3,11.3,10.4
		c2.7,1.1,5.6,1.8,8.7,1.8c0.1,0,0.2,0,0.2,0c5.3,0,10.1-1.8,14-4.8c1.2-1,2.4-2,3.4-3.2c0.3-1.2,0.4-2.4,0.4-3.6
		C47.5,36.6,46.5,33.6,44.7,31.1z"/>
	<path class="st12" d="M55.1,37.6c-0.3-3-1.2-5.8-2.5-8.4c-2.5-4.6-6.5-8.3-11.3-10.4c-1.6-0.7-3.2-1.2-4.9-1.5
		c-4.1,1.3-7.4,4.4-9.2,8.3c1.6-0.6,3.4-0.9,5.2-0.9c5.1,0,9.6,2.5,12.4,6.4c1.8,2.5,2.8,5.5,2.8,8.8c0,1.3-0.2,2.5-0.4,3.6
		c-0.2,0.9-0.5,1.7-0.9,2.6C44.5,50,41.1,53,37,54.4c-1.5,0.5-3.1,0.8-4.7,0.8c-4.6,0-8.8-2.1-11.6-5.4c-4.9-2.1-8.9-5.8-11.3-10.4
		c0,0.2,0,0.4,0,0.6c0,12.7,10.3,22.9,22.9,22.9c8.2,0,15.4-4.3,19.4-10.8c2.2-3.5,3.5-7.7,3.5-12.1C55.2,39.1,55.2,38.4,55.1,37.6"
		/>
	<path class="st11" d="M55.1,37.6c-0.3-3-1.2-5.8-2.5-8.4c-2.5-4.6-6.5-8.3-11.3-10.4c-1.6-0.7-3.2-1.2-4.9-1.5
		c-4.1,1.3-7.4,4.4-9.2,8.3c1.6-0.6,3.4-0.9,5.2-0.9c5.1,0,9.6,2.5,12.4,6.4c1.8,2.5,2.8,5.5,2.8,8.8c0,1.3-0.2,2.5-0.4,3.6
		c-0.2,0.9-0.5,1.7-0.9,2.6C44.5,50,41.1,53,37,54.4c-1.5,0.5-3.1,0.8-4.7,0.8c-4.6,0-8.8-2.1-11.6-5.4c-4.9-2.1-8.9-5.8-11.3-10.4
		c0,0.2,0,0.4,0,0.6c0,12.7,10.3,22.9,22.9,22.9c8.2,0,15.4-4.3,19.4-10.8c2.2-3.5,3.5-7.7,3.5-12.1C55.2,39.1,55.2,38.4,55.1,37.6z
		"/>
	<path class="st13" d="M41.3,8.9c-0.1,0-0.2,0-0.2,0c-5.3,0-10.1,1.8-14,4.8c-2.1,1.6-4,3.7-5.4,6c-2.2,3.5-3.5,7.7-3.5,12.2
		c0,0.8,0,1.6,0.1,2.3c0.2,2.1,0.7,4.1,1.4,6c2.7,2.3,6.2,3.8,10,3.8c0.7,0,1.3,0,1.9-0.1c-3.5-2.8-5.8-7.1-5.8-11.9
		c0-2.2,0.5-4.3,1.3-6.2c1.7-3.9,5.1-6.9,9.2-8.3c0.9-0.3,1.8-0.5,2.8-0.6c0.6-0.1,1.3-0.1,1.9-0.1c3.8,0,7.3,1.4,10,3.8
		c3.2,2.8,5.2,6.9,5.2,11.4c0,2-0.4,4-1.1,5.8c0.1,0.8,0.1,1.5,0.1,2.3c0,4.5-1.3,8.6-3.5,12.1c7.3-3.8,12.2-11.5,12.2-20.3
		C63.9,19.3,53.8,9.1,41.3,8.9"/>
	<path class="st11" d="M41.3,8.9c-0.1,0-0.2,0-0.2,0c-5.3,0-10.1,1.8-14,4.8c-2.1,1.6-4,3.7-5.4,6c-2.2,3.5-3.5,7.7-3.5,12.2
		c0,0.8,0,1.6,0.1,2.3c0.2,2.1,0.7,4.1,1.4,6c2.7,2.3,6.2,3.8,10,3.8c0.7,0,1.3,0,1.9-0.1c-3.5-2.8-5.8-7.1-5.8-11.9
		c0-2.2,0.5-4.3,1.3-6.2c1.7-3.9,5.1-6.9,9.2-8.3c0.9-0.3,1.8-0.5,2.8-0.6c0.6-0.1,1.3-0.1,1.9-0.1c3.8,0,7.3,1.4,10,3.8
		c3.2,2.8,5.2,6.9,5.2,11.4c0,2-0.4,4-1.1,5.8c0.1,0.8,0.1,1.5,0.1,2.3c0,4.5-1.3,8.6-3.5,12.1c7.3-3.8,12.2-11.5,12.2-20.3
		C63.9,19.3,53.8,9.1,41.3,8.9z"/>
	<polygon class="st14" points="92.5,32.8 92.5,18.8 86.7,32.8 85.3,32.8 79.6,18.8 79.6,32.8 76.3,32.8 76.3,14 80.9,14 86,26.4 
		91.1,14 95.8,14 95.8,32.8 	"/>
	<path class="st14" d="M98.2,15.7c0-1,0.8-1.8,1.8-1.8c1,0,1.8,0.8,1.8,1.8c0,1-0.8,1.8-1.8,1.8C99.1,17.5,98.2,16.7,98.2,15.7
		 M98.6,19.2h3v13.6h-3V19.2z"/>
	<path class="st14" d="M103.4,26c0-4.1,2.9-7.1,7-7.1c2.6,0,4.2,1.1,5.2,2.4l-1.9,1.8c-0.8-1.1-1.8-1.6-3.1-1.6
		c-2.5,0-4.1,1.9-4.1,4.5c0,2.6,1.6,4.5,4.1,4.5c1.3,0,2.4-0.6,3.1-1.6l1.9,1.8c-1,1.3-2.6,2.4-5.2,2.4
		C106.3,33.1,103.4,30.1,103.4,26"/>
	<path class="st14" d="M117.2,32.8V19.2h3v2c1-1.3,2.6-2.3,4.4-2.3v2.9c-0.3-0.1-0.6-0.1-0.9-0.1c-1.2,0-2.9,0.8-3.5,1.8v9.3H117.2z
		"/>
	<path class="st14" d="M125,26c0-3.9,2.7-7.1,7-7.1c4.4,0,7,3.2,7,7.1c0,3.9-2.6,7.1-7,7.1C127.7,33.1,125,29.9,125,26 M135.9,26
		c0-2.4-1.4-4.5-3.9-4.5c-2.5,0-3.9,2.1-3.9,4.5c0,2.4,1.4,4.5,3.9,4.5C134.5,30.5,135.9,28.4,135.9,26"/>
	<path class="st14" d="M139.7,31l1.4-2.1c1,1,2.8,1.9,4.6,1.9c1.8,0,2.7-0.8,2.7-1.8c0-2.7-8.2-0.8-8.2-6c0-2.2,1.9-4.1,5.3-4.1
		c2.3,0,4.1,0.8,5.3,1.9l-1.2,2.1c-0.8-0.9-2.3-1.6-4-1.6c-1.5,0-2.5,0.7-2.5,1.7c0,2.4,8.2,0.6,8.2,6c0,2.4-2,4.2-5.7,4.2
		C143.2,33.1,141.1,32.4,139.7,31"/>
	<path class="st14" d="M152.2,26c0-3.9,2.7-7.1,7-7.1c4.4,0,7,3.2,7,7.1c0,3.9-2.6,7.1-7,7.1C154.9,33.1,152.2,29.9,152.2,26
		 M163.1,26c0-2.4-1.4-4.5-3.9-4.5c-2.5,0-3.9,2.1-3.9,4.5c0,2.4,1.4,4.5,3.9,4.5C161.7,30.5,163.1,28.4,163.1,26"/>
	<path class="st14" d="M168.8,32.8v-11h-2.3v-2.6h2.3v-0.8c0-3,1.7-4.7,4.3-4.7c1.2,0,2.4,0.3,3.3,1.2l-1.2,1.8
		c-0.4-0.4-0.9-0.6-1.6-0.6c-1.2,0-1.9,0.8-1.9,2.3v0.8h2.8v2.6h-2.8v11H168.8z"/>
	<path class="st14" d="M176.8,29.6v-7.9h-2.3v-2.6h2.3v-3.7h3v3.7h2.8v2.6h-2.8v7.1c0,0.9,0.5,1.6,1.3,1.6c0.6,0,1.1-0.2,1.3-0.5
		l0.7,2.2c-0.5,0.5-1.4,0.9-2.8,0.9C178,33.1,176.8,31.9,176.8,29.6"/>
	<path class="st14" d="M189,30.1l1.8-2.2c1.2,1.4,3.2,2.3,5.2,2.3c2.5,0,3.9-1.1,3.9-2.9c0-1.9-1.5-2.6-4.2-2.6c-0.8,0-1.9,0-2.2,0
		v-3c0.3,0,1.4,0,2.2,0c2.2,0,3.9-0.8,3.9-2.5c0-1.7-1.7-2.6-3.8-2.6c-1.9,0-3.5,0.7-4.8,2.1l-1.7-2.1c1.4-1.7,3.7-3,6.8-3
		c4.1,0,6.8,1.9,6.8,5.1c0,2.5-2.1,4-4.1,4.3c1.8,0.2,4.4,1.7,4.4,4.6c0,3.2-2.7,5.5-7.1,5.5C192.7,33.1,190.2,31.8,189,30.1"/>
	<path class="st14" d="M204.5,23.4c0-5.4,2.8-9.7,8.3-9.7c2.3,0,4.1,0.8,5.4,2.1l-1.5,2.5c-1-1-2.1-1.7-3.9-1.7c-3.1,0-5,2.9-5,6.2
		c0,0.2,0,0.4,0,0.5c0.8-1.3,2.8-2.6,5-2.6c3.4,0,6.3,2.1,6.3,6.1c0,3.5-2.7,6.3-6.9,6.3C206.7,33.1,204.5,28.6,204.5,23.4
		 M215.8,26.9c0-2.3-1.8-3.3-3.9-3.3c-1.6,0-3.2,0.9-4.1,2.2c0.2,2,1.3,4.4,4.2,4.4C214.6,30.2,215.8,28.4,215.8,26.9"/>
	<path class="st14" d="M220.7,30.2l1.9-2.3c1.3,1.4,3,2.2,5.1,2.2c2.4,0,3.9-1.5,3.9-3.3c0-2-1.5-3.3-3.8-3.3
		c-1.6,0-2.9,0.5-4.1,1.6l-2.3-0.7V14h12.3v2.9h-9v5.4c0.9-0.9,2.4-1.6,4.2-1.6c3.2,0,6,2.2,6,6c0,3.9-3,6.4-7.1,6.4
		C224.5,33.1,222.3,32,220.7,30.2"/>
	<path class="st14" d="M76.4,48.4c0-5.2,3.9-8.8,8.8-8.8c3,0,5.1,1.5,6.5,3.4l-1.8,1c-1-1.4-2.7-2.5-4.7-2.5c-3.7,0-6.6,2.9-6.6,6.9
		c0,4,2.8,6.9,6.6,6.9c1.9,0,3.7-1,4.7-2.5l1.8,1c-1.4,1.9-3.5,3.4-6.5,3.4C80.2,57.2,76.4,53.6,76.4,48.4"/>
	<path class="st14" d="M92.9,48.4c0-5,3.4-8.8,8.5-8.8c5,0,8.5,3.8,8.5,8.8c0,5-3.4,8.8-8.5,8.8C96.3,57.2,92.9,53.4,92.9,48.4
		 M107.6,48.4c0-4-2.5-6.9-6.3-6.9c-3.8,0-6.3,2.9-6.3,6.9c0,4,2.4,6.9,6.3,6.9C105.1,55.3,107.6,52.3,107.6,48.4"/>
	<polygon class="st14" points="124.1,56.9 114.1,43.3 114.1,56.9 112,56.9 112,39.8 114.2,39.8 124,53.1 124,39.8 126.1,39.8 
		126.1,56.9 	"/>
	<polygon class="st14" points="130.1,56.9 130.1,39.8 141.3,39.8 141.3,41.7 132.2,41.7 132.2,47.2 141.1,47.2 141.1,49.1 
		132.2,49.1 132.2,56.9 	"/>
	<polygon class="st14" points="144.2,56.9 144.2,39.8 155.3,39.8 155.3,41.7 146.3,41.7 146.3,47.2 155.2,47.2 155.2,49.1 
		146.3,49.1 146.3,55 155.3,55 155.3,56.9 	"/>
	<path class="st14" d="M168.6,56.9l-4.3-6.8h-3.4v6.8h-2.1v-17h6.8c3.1,0,5.3,2,5.3,5.1c0,3.1-2.1,4.8-4.4,5l4.6,7H168.6z M168.7,45
		c0-1.9-1.4-3.2-3.4-3.2h-4.5v6.5h4.5C167.3,48.2,168.7,46.9,168.7,45"/>
	<polygon class="st14" points="174.3,56.9 174.3,39.8 185.4,39.8 185.4,41.7 176.4,41.7 176.4,47.2 185.2,47.2 185.2,49.1 
		176.4,49.1 176.4,55 185.4,55 185.4,56.9 	"/>
	<polygon class="st14" points="200.9,56.9 190.9,43.3 190.9,56.9 188.8,56.9 188.8,39.8 191,39.8 200.8,53.1 200.8,39.8 202.9,39.8 
		202.9,56.9 	"/>
	<path class="st14" d="M205.4,48.4c0-5.2,3.9-8.8,8.8-8.8c3,0,5.1,1.5,6.5,3.4l-1.8,1c-1-1.4-2.7-2.5-4.7-2.5
		c-3.7,0-6.6,2.9-6.6,6.9c0,4,2.8,6.9,6.6,6.9c1.9,0,3.7-1,4.7-2.5l1.8,1c-1.4,1.9-3.5,3.4-6.5,3.4
		C209.2,57.2,205.4,53.6,205.4,48.4"/>
	<polygon class="st14" points="223.3,56.9 223.3,39.8 234.5,39.8 234.5,41.7 225.5,41.7 225.5,47.2 234.3,47.2 234.3,49.1 
		225.5,49.1 225.5,55 234.5,55 234.5,56.9 	"/>
	<line class="st15" x1="246.1" y1="5.5" x2="246.1" y2="63.1"/>
</g>
</svg>
